<svg id="Layer_1" data-name="Layer 1" xmlns="http://www.w3.org/2000/svg" viewBox="0 0 2301.37842 380.48633"><defs><style>.cls-1{fill:#31bc93;}.cls-2{fill:#fff;}</style></defs><title>coinpopnewlogo</title><path class="cls-1" d="M486.16064,1089.09375q-120.04541,0-120.042-73.80664V923.24072q0-73.80688,120.042-73.80664H698.249q9.75293,0,12.7251,5.30225,2.96265,5.30859,2.96924,16.33057,0,10.60767-2.96924,15.90674-2.97217,5.30859-12.7251,5.30225H487.85742q-35.63086,0-51.74951,8.90771-16.12573,8.90771-16.11865,22.05713v92.04639q0,12.7251,16.11865,21.8457,16.11548,9.126,51.74951,9.11914H699.52148q9.75293,0,12.51318,5.30273,2.75391,5.30859,2.75732,15.90625,0,10.6084-2.75732,16.11914-2.76343,5.5166-12.51318,5.51367Z" transform="translate(-366.11865 -779.86914)"/><path class="cls-1" d="M744.9043,923.24072q0-73.80688,120.042-73.80664H957.417q120.03369,0,120.042,73.80664v92.04639q0,73.80762-120.042,73.80664h-92.4707q-120.04541,0-120.042-73.80664Zm278.68359,0q0-13.14258-16.11914-22.05713-16.125-8.90771-51.74854-8.90771H866.64307q-35.63086,0-51.74951,8.90771-16.12573,8.90771-16.11865,22.05713v92.04639q0,12.7251,16.11865,21.8457,16.11548,9.126,51.74951,9.11914h89.07715q35.63086,0,51.74854-9.11914,16.11621-9.11719,16.11914-21.8457Z" transform="translate(-366.11865 -779.86914)"/><path class="cls-1" d="M1106.7207,806.168q0-13.57031,7.84766-19.93652,7.84277-6.36255,25.66211-6.3623,17.81543,0,25.66309,6.3623,7.84424,6.36328,7.84668,19.93652,0,13.58057-7.84668,19.93652-7.85449,6.36255-25.66309,6.3623-17.81543,0-25.66211-6.3623Q1106.71387,819.74121,1106.7207,806.168Zm60.65723,264.68555q0,12.30762-6.78711,16.11914-6.78955,3.81738-20.36035,3.81836-13.58057,0-20.14844-3.81836-6.58154-3.81738-6.57422-16.11914V870.64258q0-12.29736,6.57422-16.11865,6.57129-3.81738,20.14844-3.81738,13.57031,0,20.36035,3.81738,6.78076,3.81812,6.78711,16.11865Z" transform="translate(-366.11865 -779.86914)"/><path class="cls-1" d="M1232.27441,1090.791q-13.58057,0-20.14844-3.81836-6.58154-3.81738-6.5752-16.11914V923.24072q0-73.80688,120.042-73.80664h92.4707q120.03516,0,120.042,73.80664v147.61279q0,12.30762-6.78711,16.11914-6.78955,3.81738-20.36035,3.81836-13.5791,0-20.14844-3.81836-6.58154-3.81738-6.57422-16.11914V923.24072q0-13.14258-16.11914-22.05713-16.125-8.90771-51.749-8.90771H1327.29q-35.63086,0-51.75,8.90771-16.125,8.90771-16.11816,22.05713v147.61279q0,12.30762-6.78711,16.11914Q1245.84521,1090.79,1232.27441,1090.791Z" transform="translate(-366.11865 -779.86914)"/><path class="cls-1" d="M1628.45313,1140.41894q0,12.29736-6.78711,16.11816-6.78955,3.81885-20.36035,3.81836-13.58057,0-20.14844-3.81836-6.58154-3.81738-6.5752-16.11816V923.24072q0-73.80688,120.042-73.80664h101.80273q120.03516,0,120.042,73.80664v92.04639q0,73.80762-120.042,73.80664H1628.45313Zm166.27734-94.167q35.63086,0,51.749-8.9082,16.11621-8.90625,16.11914-22.05664V923.24072q0-12.7251-16.11914-21.84521-16.125-9.11646-51.749-9.11963h-98.40918q-35.63086,0-51.75,9.11963-16.125,9.12671-16.11816,21.84521V1046.252Z" transform="translate(-366.11865 -779.86914)"/><path class="cls-1" d="M1948.7041,923.24072q0-73.80688,120.042-73.80664h92.46973q120.03516,0,120.042,73.80664v92.04639q0,73.80762-120.042,73.80664h-92.46973q-120.04541,0-120.042-73.80664Zm278.68359,0q0-13.14258-16.11914-22.05713-16.125-8.90771-51.749-8.90771h-89.07715q-35.63086,0-51.75,8.90771-16.125,8.90771-16.11816,22.05713v92.04639q0,12.7251,16.11816,21.8457,16.11621,9.126,51.75,9.11914h89.07715q35.63086,0,51.749-9.11914,16.11621-9.11719,16.11914-21.8457Z" transform="translate(-366.11865 -779.86914)"/><path class="cls-1" d="M2369.48145,1140.41894q0,12.29736-6.78711,16.11816-6.78955,3.81885-20.36035,3.81836-13.58057,0-20.14844-3.81836-6.58154-3.81738-6.57519-16.11816V923.24072q0-73.80688,120.042-73.80664h101.80273q120.03516,0,120.042,73.80664v92.04639q0,73.80762-120.042,73.80664H2369.48145Zm166.27734-94.167q35.63086,0,51.749-8.9082,16.11621-8.90625,16.11914-22.05664V923.24072q0-12.7251-16.11914-21.84521-16.125-9.11646-51.749-9.11963h-98.40918q-35.63086,0-51.75,9.11963-16.125,9.12671-16.11816,21.84521V1046.252Z" transform="translate(-366.11865 -779.86914)"/><path class="cls-2" d="M496.16064,1089.09375q-120.04541,0-120.042-73.80664V923.24072q0-73.80688,120.042-73.80664H708.249q9.75293,0,12.7251,5.30225,2.96265,5.30859,2.96924,16.33057,0,10.60767-2.96924,15.90674-2.97217,5.30859-12.7251,5.30225H497.85742q-35.63086,0-51.74951,8.90771-16.12573,8.90771-16.11865,22.05713v92.04639q0,12.7251,16.11865,21.8457,16.11548,9.126,51.74951,9.11914H709.52148q9.75293,0,12.51318,5.30273,2.75391,5.30859,2.75732,15.90625,0,10.6084-2.75732,16.11914-2.76343,5.5166-12.51318,5.51367Z" transform="translate(-366.11865 -779.86914)"/><path class="cls-2" d="M754.9043,923.24072q0-73.80688,120.042-73.80664H967.417q120.03369,0,120.042,73.80664v92.04639q0,73.80762-120.042,73.80664h-92.4707q-120.04541,0-120.042-73.80664Zm278.68359,0q0-13.14258-16.11914-22.05713-16.125-8.90771-51.74854-8.90771H876.64307q-35.63086,0-51.74951,8.90771-16.12573,8.90771-16.11865,22.05713v92.04639q0,12.7251,16.11865,21.8457,16.11548,9.126,51.74951,9.11914h89.07715q35.63086,0,51.74854-9.11914,16.11621-9.11719,16.11914-21.8457Z" transform="translate(-366.11865 -779.86914)"/><path class="cls-2" d="M1116.7207,806.168q0-13.57031,7.84766-19.93652,7.84277-6.36255,25.66211-6.3623,17.81543,0,25.66309,6.3623,7.84424,6.36328,7.84668,19.93652,0,13.58057-7.84668,19.93652-7.85449,6.36255-25.66309,6.3623-17.81543,0-25.66211-6.3623Q1116.71387,819.74121,1116.7207,806.168Zm60.65723,264.68555q0,12.30762-6.78711,16.11914-6.78955,3.81738-20.36035,3.81836-13.58057,0-20.14844-3.81836-6.58154-3.81738-6.57422-16.11914V870.64258q0-12.29736,6.57422-16.11865,6.57129-3.81738,20.14844-3.81738,13.57031,0,20.36035,3.81738,6.78076,3.81812,6.78711,16.11865Z" transform="translate(-366.11865 -779.86914)"/><path class="cls-2" d="M1242.27441,1090.791q-13.58057,0-20.14844-3.81836-6.58154-3.81738-6.5752-16.11914V923.24072q0-73.80688,120.042-73.80664h92.4707q120.03516,0,120.042,73.80664v147.61279q0,12.30762-6.78711,16.11914-6.78955,3.81738-20.36035,3.81836-13.5791,0-20.14844-3.81836-6.58154-3.81738-6.57422-16.11914V923.24072q0-13.14258-16.11914-22.05713-16.125-8.90771-51.749-8.90771H1337.29q-35.63086,0-51.75,8.90771-16.125,8.90771-16.11816,22.05713v147.61279q0,12.30762-6.78711,16.11914Q1255.84521,1090.79,1242.27441,1090.791Z" transform="translate(-366.11865 -779.86914)"/><path class="cls-2" d="M1638.45313,1140.41894q0,12.29736-6.78711,16.11816-6.78955,3.81885-20.36035,3.81836-13.58057,0-20.14844-3.81836-6.58154-3.81738-6.5752-16.11816V923.24072q0-73.80688,120.042-73.80664h101.80273q120.03516,0,120.042,73.80664v92.04639q0,73.80762-120.042,73.80664H1638.45313Zm166.27734-94.167q35.63086,0,51.749-8.9082,16.11621-8.90625,16.11914-22.05664V923.24072q0-12.7251-16.11914-21.84521-16.125-9.11646-51.749-9.11963h-98.40918q-35.63086,0-51.75,9.11963-16.125,9.12671-16.11816,21.84521V1046.252Z" transform="translate(-366.11865 -779.86914)"/><path class="cls-2" d="M1958.7041,923.24072q0-73.80688,120.042-73.80664h92.46973q120.03516,0,120.042,73.80664v92.04639q0,73.80762-120.042,73.80664h-92.46973q-120.04541,0-120.042-73.80664Zm278.68359,0q0-13.14258-16.11914-22.05713-16.125-8.90771-51.749-8.90771h-89.07715q-35.63086,0-51.75,8.90771-16.125,8.90771-16.11816,22.05713v92.04639q0,12.7251,16.11816,21.8457,16.11621,9.126,51.75,9.11914h89.07715q35.63086,0,51.749-9.11914,16.11621-9.11719,16.11914-21.8457Z" transform="translate(-366.11865 -779.86914)"/><path class="cls-2" d="M2379.48145,1140.41894q0,12.29736-6.78711,16.11816-6.78955,3.81885-20.36035,3.81836-13.58057,0-20.14844-3.81836-6.58154-3.81738-6.57519-16.11816V923.24072q0-73.80688,120.042-73.80664h101.80273q120.03516,0,120.042,73.80664v92.04639q0,73.80762-120.042,73.80664H2379.48145Zm166.27734-94.167q35.63086,0,51.749-8.9082,16.11621-8.90625,16.11914-22.05664V923.24072q0-12.7251-16.11914-21.84521-16.125-9.11646-51.749-9.11963h-98.40918q-35.63086,0-51.75,9.11963-16.125,9.12671-16.11816,21.84521V1046.252Z" transform="translate(-366.11865 -779.86914)"/></svg>